<svg fill="#000000" xmlns="http://www.w3.org/2000/svg" viewBox="0 0 24 24" width="25px" height="25px"><path d="M 12 1 C 8.6761905 1 6 3.6761905 6 7 L 6 9.7207031 C 4.7585397 11.130211 4 12.97425 4 15 C 4 19.418 7.582 23 12 23 C 16.418 23 20 19.418 20 15 C 20 12.97425 19.24146 11.130211 18 9.7207031 L 18 7 C 18 3.6761905 15.32381 1 12 1 z M 12 3 C 14.27619 3 16 4.7238095 16 7 L 16 8.0800781 C 14.822119 7.3974831 13.459229 7 12 7 C 10.540771 7 9.1778813 7.3974831 8 8.0800781 L 8 7 C 8 4.7238095 9.7238095 3 12 3 z M 12.041016 12.001953 C 13.122078 12.023432 14 12.91325 14 14 C 14 14.735 13.594 15.372703 13 15.720703 L 13 18 C 13 18.552 12.552 19 12 19 C 11.448 19 11 18.552 11 18 L 11 15.720703 C 10.274 15.295703 9.8285 14.437047 10.0625 13.498047 C 10.2415 12.781047 10.843406 12.200875 11.566406 12.046875 C 11.727156 12.0125 11.886578 11.998885 12.041016 12.001953 z"/></svg>